<svg xmlns="http://www.w3.org/2000/svg" xmlns:xlink="http://www.w3.org/1999/xlink" width="44" zoomAndPan="magnify" viewBox="0 0 33 32.999998" height="44" preserveAspectRatio="xMidYMid meet" version="1.0"><defs><clipPath id="3e4d1dd620"><path d="M 0.5 0.566406 L 32.75 0.566406 L 32.75 32.816406 L 0.5 32.816406 Z M 0.5 0.566406 " clip-rule="nonzero"/></clipPath><clipPath id="7d4e58c92f"><path d="M 6.558594 7.570312 L 26.808594 7.570312 L 26.808594 22 L 6.558594 22 Z M 6.558594 7.570312 " clip-rule="nonzero"/></clipPath><clipPath id="6031cc4268"><path d="M 10 23 L 23 23 L 23 24.070312 L 10 24.070312 Z M 10 23 " clip-rule="nonzero"/></clipPath></defs><rect x="-3.3" width="39.6" fill="#ffffff" y="-3.3" height="39.599998" fill-opacity="1"/><g clip-path="url(#3e4d1dd620)"><path fill="#8c52ff" d="M 5.855469 32.96875 L 27.546875 32.96875 C 30.5 32.96875 32.902344 30.566406 32.902344 27.613281 L 32.902344 5.921875 C 32.902344 2.96875 30.5 0.566406 27.546875 0.566406 L 5.855469 0.566406 C 2.902344 0.566406 0.5 2.96875 0.5 5.921875 L 0.5 27.613281 C 0.5 30.566406 2.902344 32.96875 5.855469 32.96875 Z M 5.855469 32.96875 " fill-opacity="1" fill-rule="nonzero"/></g><g clip-path="url(#7d4e58c92f)"><path fill="#f4f4f4" d="M 25.960938 18.371094 L 7.445312 18.371094 L 7.445312 8.539062 C 7.445312 8.496094 7.480469 8.460938 7.523438 8.460938 L 25.878906 8.460938 C 25.921875 8.460938 25.960938 8.496094 25.960938 8.539062 Z M 18.730469 20.273438 C 18.636719 20.367188 18.503906 20.429688 18.359375 20.429688 L 15.046875 20.429688 C 14.753906 20.429688 14.519531 20.191406 14.519531 19.902344 C 14.519531 19.753906 14.578125 19.625 14.671875 19.527344 C 14.769531 19.433594 14.898438 19.375 15.046875 19.375 L 18.359375 19.375 C 18.648438 19.375 18.886719 19.609375 18.886719 19.902344 C 18.886719 20.046875 18.828125 20.179688 18.730469 20.273438 Z M 25.878906 7.574219 L 7.523438 7.574219 C 6.992188 7.574219 6.558594 8.007812 6.558594 8.539062 L 6.558594 20.214844 C 6.558594 20.75 6.992188 21.179688 7.523438 21.179688 L 25.878906 21.179688 C 26.410156 21.179688 26.84375 20.75 26.84375 20.214844 L 26.84375 8.539062 C 26.84375 8.007812 26.410156 7.574219 25.878906 7.574219 " fill-opacity="1" fill-rule="nonzero"/></g><path fill="#f4f4f4" d="M 18.621094 19.902344 C 18.621094 19.96875 18.59375 20.035156 18.542969 20.085938 C 18.496094 20.136719 18.429688 20.164062 18.359375 20.164062 L 15.046875 20.164062 C 14.902344 20.164062 14.785156 20.046875 14.785156 19.902344 C 14.785156 19.832031 14.8125 19.765625 14.859375 19.714844 C 14.910156 19.667969 14.976562 19.640625 15.046875 19.640625 L 18.359375 19.640625 C 18.503906 19.640625 18.621094 19.757812 18.621094 19.902344 " fill-opacity="1" fill-rule="nonzero"/><g clip-path="url(#6031cc4268)"><path fill="#f4f4f4" d="M 22.667969 24.347656 L 10.738281 24.347656 C 10.972656 23.652344 11.632812 23.152344 12.40625 23.152344 L 20.996094 23.152344 C 21.773438 23.152344 22.429688 23.652344 22.667969 24.347656 " fill-opacity="1" fill-rule="nonzero"/></g><path fill="#f4f4f4" d="M 18.972656 22.832031 L 14.429688 22.832031 L 14.878906 21.503906 L 18.527344 21.503906 L 18.972656 22.832031 " fill-opacity="1" fill-rule="nonzero"/></svg>