<svg xmlns="http://www.w3.org/2000/svg" xmlns:xlink="http://www.w3.org/1999/xlink" width="45" zoomAndPan="magnify" viewBox="0 0 33.75 32.999998" height="44" preserveAspectRatio="xMidYMid meet" version="1.0"><defs><clipPath id="7ff00ce25c"><path d="M 0 0.121094 L 33.5 0.121094 L 33.5 32.878906 L 0 32.878906 Z M 0 0.121094 " clip-rule="nonzero"/></clipPath><clipPath id="3e1024d741"><path d="M 0.65625 0.554688 L 32.667969 0.554688 L 32.667969 32.570312 L 0.65625 32.570312 Z M 0.65625 0.554688 " clip-rule="nonzero"/></clipPath><clipPath id="3b0d328a7e"><path d="M 5.679688 9.578125 L 28 9.578125 L 28 22 L 5.679688 22 Z M 5.679688 9.578125 " clip-rule="nonzero"/></clipPath></defs><g clip-path="url(#7ff00ce25c)"><path fill="#ffffff" d="M 0 0.121094 L 33.5 0.121094 L 33.5 32.878906 L 0 32.878906 Z M 0 0.121094 " fill-opacity="1" fill-rule="nonzero"/></g><g clip-path="url(#3e1024d741)"><path fill="#8c52ff" d="M 5.972656 32.71875 L 27.503906 32.71875 C 30.433594 32.71875 32.820312 30.335938 32.820312 27.40625 L 32.820312 5.871094 C 32.820312 2.941406 30.433594 0.554688 27.503906 0.554688 L 5.972656 0.554688 C 3.039062 0.554688 0.65625 2.941406 0.65625 5.871094 L 0.65625 27.40625 C 0.65625 30.335938 3.039062 32.71875 5.972656 32.71875 Z M 5.972656 32.71875 " fill-opacity="1" fill-rule="nonzero"/></g><g clip-path="url(#3b0d328a7e)"><path fill="#f4f4f4" d="M 16.703125 9.640625 C 12.484375 9.640625 8.601562 11.566406 6.046875 14.917969 C 5.652344 15.441406 5.652344 16.171875 6.046875 16.691406 C 8.601562 20.046875 12.484375 21.972656 16.703125 21.972656 C 20.925781 21.972656 24.808594 20.046875 27.359375 16.695312 C 27.757812 16.171875 27.757812 15.441406 27.359375 14.921875 C 24.808594 11.566406 20.925781 9.640625 16.703125 9.640625 Z M 26.199219 15.808594 C 23.925781 18.796875 20.464844 20.511719 16.703125 20.511719 C 12.945312 20.511719 9.484375 18.796875 7.210938 15.804688 C 9.484375 12.816406 12.945312 11.101562 16.703125 11.101562 C 20.464844 11.101562 23.925781 12.816406 26.199219 15.804688 C 26.199219 15.804688 26.199219 15.808594 26.199219 15.808594 Z M 26.199219 15.808594 " fill-opacity="1" fill-rule="nonzero"/></g><path fill="#f4f4f4" d="M 16.703125 11.53125 C 14.347656 11.53125 12.429688 13.449219 12.429688 15.808594 C 12.429688 18.164062 14.347656 20.082031 16.703125 20.082031 C 19.0625 20.082031 20.980469 18.164062 20.980469 15.808594 C 20.980469 13.449219 19.0625 11.53125 16.703125 11.53125 Z M 16.703125 18.621094 C 15.152344 18.621094 13.890625 17.359375 13.890625 15.808594 C 13.890625 14.253906 15.152344 12.992188 16.703125 12.992188 C 18.253906 12.992188 19.519531 14.253906 19.519531 15.808594 C 19.519531 17.359375 18.253906 18.621094 16.703125 18.621094 Z M 16.703125 18.621094 " fill-opacity="1" fill-rule="nonzero"/></svg>