<svg xmlns="http://www.w3.org/2000/svg" xmlns:xlink="http://www.w3.org/1999/xlink" width="45" zoomAndPan="magnify" viewBox="0 0 33.75 32.999998" height="44" preserveAspectRatio="xMidYMid meet" version="1.0"><defs><clipPath id="84eabd9123"><path d="M 0 0.121094 L 33.5 0.121094 L 33.5 32.878906 L 0 32.878906 Z M 0 0.121094 " clip-rule="nonzero"/></clipPath><clipPath id="bc7687a08b"><path d="M 0.714844 0.554688 L 32.730469 0.554688 L 32.730469 32.570312 L 0.714844 32.570312 Z M 0.714844 0.554688 " clip-rule="nonzero"/></clipPath><clipPath id="be3ebc6d1f"><path d="M 7.808594 5.667969 L 25.675781 5.667969 L 25.675781 25.769531 L 7.808594 25.769531 Z M 7.808594 5.667969 " clip-rule="nonzero"/></clipPath></defs><g clip-path="url(#84eabd9123)"><path fill="#ffffff" d="M 0 0.121094 L 33.5 0.121094 L 33.5 32.878906 L 0 32.878906 Z M 0 0.121094 " fill-opacity="1" fill-rule="nonzero"/></g><g clip-path="url(#bc7687a08b)"><path fill="#8c52ff" d="M 6.03125 32.71875 L 27.5625 32.71875 C 30.496094 32.71875 32.878906 30.335938 32.878906 27.40625 L 32.878906 5.871094 C 32.878906 2.941406 30.496094 0.554688 27.5625 0.554688 L 6.03125 0.554688 C 3.101562 0.554688 0.714844 2.941406 0.714844 5.871094 L 0.714844 27.40625 C 0.714844 30.335938 3.101562 32.71875 6.03125 32.71875 Z M 6.03125 32.71875 " fill-opacity="1" fill-rule="nonzero"/></g><g clip-path="url(#be3ebc6d1f)"><path fill="#f4f4f4" d="M 16.226562 9.1875 C 17.34375 9.898438 18.121094 11.085938 18.257812 12.4375 C 18.699219 12.640625 19.203125 12.777344 19.746094 12.777344 C 21.710938 12.777344 23.300781 11.1875 23.300781 9.222656 C 23.300781 7.257812 21.710938 5.667969 19.746094 5.667969 C 17.816406 5.703125 16.226562 7.257812 16.226562 9.1875 Z M 13.890625 16.433594 C 15.855469 16.433594 17.445312 14.84375 17.445312 12.878906 C 17.445312 10.914062 15.855469 9.324219 13.890625 9.324219 C 11.925781 9.324219 10.335938 10.914062 10.335938 12.878906 C 10.335938 14.84375 11.925781 16.433594 13.890625 16.433594 Z M 15.378906 16.671875 L 12.367188 16.671875 C 9.863281 16.671875 7.832031 18.703125 7.832031 21.207031 L 7.832031 24.964844 L 8.066406 25.03125 C 10.4375 25.777344 12.535156 26.015625 14.230469 26.015625 C 17.546875 26.015625 19.476562 25.066406 19.609375 25 L 19.847656 24.863281 L 19.882812 24.863281 L 19.882812 21.207031 C 19.914062 18.703125 17.886719 16.671875 15.378906 16.671875 Z M 21.234375 13.015625 L 18.257812 13.015625 C 18.222656 14.199219 17.714844 15.28125 16.902344 16.0625 C 19.136719 16.738281 20.761719 18.769531 20.761719 21.207031 L 20.761719 22.324219 C 23.707031 22.222656 25.398438 21.375 25.5 21.34375 L 25.738281 21.207031 L 25.773438 21.207031 L 25.773438 17.550781 C 25.773438 15.046875 23.742188 13.015625 21.234375 13.015625 Z M 21.234375 13.015625 " fill-opacity="1" fill-rule="nonzero"/></g></svg>